<?xml version="1.0" encoding="UTF-8"?>
<svg version="1.1" xmlns="http://www.w3.org/2000/svg" width="101" height="227">
<path d="M0 0 C3.55747163 2.68786745 5.72566929 5.31670266 6.71484375 9.734375 C8.42521158 23.32359886 6.20924227 34.67427274 -2.1171875 45.6484375 C-2.73851562 46.42445312 -3.35984375 47.20046875 -4 48 C-4.53882813 48.71414062 -5.07765625 49.42828125 -5.6328125 50.1640625 C-13.48105337 59.84238645 -24.53699674 67.05153867 -34.8125 73.9375 C-38.65166601 76.5974 -41.07773791 78.69779436 -43 83 C-42.30567713 92.93834699 -33.94259638 100.35655808 -27.12109375 106.91796875 C-24.20124474 109.78404522 -21.61142277 112.85290077 -19 116 C-20.69134425 119.76029095 -22.73262407 121.4866339 -26 124 C-26.33 124.66 -26.66 125.32 -27 126 C-31.15504438 124.40493557 -33.72377852 121.35799019 -36.625 118.125 C-37.14771484 117.54709717 -37.67042969 116.96919434 -38.20898438 116.3737793 C-39.81376521 114.58931164 -41.40687307 112.79487013 -43 111 C-43.48436523 110.4642334 -43.96873047 109.9284668 -44.46777344 109.37646484 C-51.1634364 101.94955885 -56.82212793 94.81103537 -57.5625 84.5 C-57.13907674 76.99746903 -53.41126299 70.96010874 -48 65.9375 C-43.86087445 62.51225349 -39.45452725 59.51164629 -35.01855469 56.48706055 C-22.97950633 48.23166308 -10.97916069 38.72883361 -7 24 C-5.92343676 16.97400835 -7.40979722 12.22323944 -11.1015625 6.2265625 C-12 4 -12 4 -11.3359375 1.7734375 C-8.36330047 -2.17269469 -4.28460622 -1.03421529 0 0 Z " fill="#000000" transform="translate(57,1)"/>
<path d="M0 0 C4.87208556 3.06760942 6.63574394 5.49995869 8 11 C8.37774972 14.60732648 8.46099409 18.18738794 8.5 21.8125 C8.54125 22.75931641 8.5825 23.70613281 8.625 24.68164062 C8.71853209 33.17552317 5.66589694 38.0878336 -0.03515625 44.171875 C-9.1385079 51.25810635 -19.16027581 57.00919293 -29 63 C-47.3775405 74.202378 -61.13178478 86.1580318 -66.375 107.75 C-66.94001303 110.16264094 -67.47740837 112.57763408 -68 115 C-72.71875 114.3046875 -72.71875 114.3046875 -75.25 111.5625 C-78.13547936 107.33733379 -78.5037537 104.05103039 -78 99 C-77.26295857 96.28215971 -76.18967829 93.79827129 -75 91.25 C-74.68603271 90.55970703 -74.37206543 89.86941406 -74.04858398 89.15820312 C-64.30907279 68.38698418 -48.87473308 58.2203247 -29.8125 46.9375 C-15.32083324 39.11978449 -15.32083324 39.11978449 -5 27 C-3.62664852 19.63834119 -5.96269264 13.59561269 -9 7 C-9.67468131 5.33656159 -10.34354242 3.67071412 -11 2 C-7.29718134 -0.46854577 -4.29423209 -0.78741118 0 0 Z " fill="#000000" transform="translate(93,58)"/>
<path d="M0 0 C14.84701714 25.19787876 20.75243957 50.11707118 16.625 79.25 C16.49899414 80.14291748 16.37298828 81.03583496 16.24316406 81.95581055 C15.59086971 86.2197172 14.86882307 90.06734624 13 94 C10.25 94.375 10.25 94.375 7 94 C3.97258004 91.13191793 3.13968073 89.38697064 2.72265625 85.24609375 C2.6699988 80.66489602 2.93094435 76.16895184 3.5 71.625 C5.98402378 51.24139308 1.65239836 30.9723663 -8.765625 13.3046875 C-9.90865671 11.17054601 -10.54240922 9.36421904 -11 7 C-9.73742767 5.82439821 -8.46462916 4.65977135 -7.1875 3.5 C-6.12595703 2.52546875 -6.12595703 2.52546875 -5.04296875 1.53125 C-3 0 -3 0 0 0 Z " fill="#000000" transform="translate(51,133)"/>
</svg>
